<svg xmlns="http://www.w3.org/2000/svg" width="24" height="24" viewBox="0 0 24 24">
  <g id="format-square" transform="translate(-236 -380)">
    <path id="Vector" d="M16,2.95v10.1a2.734,2.734,0,0,0-.5-.05A2.5,2.5,0,0,0,13,15.5a2.734,2.734,0,0,0,.05.5H2.95A2.734,2.734,0,0,0,3,15.5,2.5,2.5,0,0,0,.5,13a2.734,2.734,0,0,0-.5.05V2.95A2.734,2.734,0,0,0,.5,3,2.5,2.5,0,0,0,3,.5,2.734,2.734,0,0,0,2.95,0h10.1A2.734,2.734,0,0,0,13,.5,2.5,2.5,0,0,0,15.5,3,2.734,2.734,0,0,0,16,2.95Z" transform="translate(240 384)" fill="none" stroke="#575c66" stroke-linecap="round" stroke-linejoin="round" stroke-width="1.5"/>
    <path id="Vector-2" data-name="Vector" d="M5,2.5A2.5,2.5,0,0,1,2.5,5,2.734,2.734,0,0,1,2,4.95,2.5,2.5,0,1,1,4.95,2,2.734,2.734,0,0,1,5,2.5Z" transform="translate(238 382)" fill="none" stroke="#575c66" stroke-linecap="round" stroke-linejoin="round" stroke-width="1.5"/>
    <path id="Vector-3" data-name="Vector" d="M5,2.5A2.5,2.5,0,0,1,3,4.95,2.734,2.734,0,0,1,2.5,5,2.5,2.5,0,0,1,0,2.5,2.734,2.734,0,0,1,.05,2,2.5,2.5,0,0,1,5,2.5Z" transform="translate(253 382)" fill="none" stroke="#575c66" stroke-linecap="round" stroke-linejoin="round" stroke-width="1.5"/>
    <path id="Vector-4" data-name="Vector" d="M5,2.5a2.734,2.734,0,0,1-.05.5A2.5,2.5,0,1,1,2,.05,2.734,2.734,0,0,1,2.5,0,2.5,2.5,0,0,1,5,2.5Z" transform="translate(238 397)" fill="none" stroke="#575c66" stroke-linecap="round" stroke-linejoin="round" stroke-width="1.5"/>
    <path id="Vector-5" data-name="Vector" d="M5,2.5A2.5,2.5,0,0,1,.05,3,2.734,2.734,0,0,1,0,2.5,2.5,2.5,0,0,1,2.5,0,2.734,2.734,0,0,1,3,.05,2.5,2.5,0,0,1,5,2.5Z" transform="translate(253 397)" fill="none" stroke="#575c66" stroke-linecap="round" stroke-linejoin="round" stroke-width="1.5"/>
    <path id="Vector-6" data-name="Vector" d="M0,0H24V24H0Z" transform="translate(236 380)" fill="none" opacity="0"/>
  </g>
</svg>
